<svg width="256" height="256" viewBox="0 0 256 256" fill="none" xmlns="http://www.w3.org/2000/svg">
<path d="M96 120V176C96 179.183 94.7357 182.235 92.4853 184.485C90.2348 186.736 87.1826 188 84 188C80.8174 188 77.7652 186.736 75.5147 184.485C73.2643 182.235 72 179.183 72 176V120C72 116.817 73.2643 113.765 75.5147 111.515C77.7652 109.264 80.8174 108 84 108C87.1826 108 90.2348 109.264 92.4853 111.515C94.7357 113.765 96 116.817 96 120ZM124 188C127.183 188 130.235 186.736 132.485 184.485C134.736 182.235 136 179.183 136 176V148C136 143.757 137.686 139.687 140.686 136.686C143.687 133.686 147.757 132 152 132C156.243 132 160.313 133.686 163.314 136.686C166.314 139.687 168 143.757 168 148V176C168 179.183 169.264 182.235 171.515 184.485C173.765 186.736 176.817 188 180 188C183.183 188 186.235 186.736 188.485 184.485C190.736 182.235 192 179.183 192 176V148C191.998 141.115 190.219 134.347 186.835 128.351C183.45 122.356 178.576 117.335 172.683 113.775C166.79 110.215 160.078 108.236 153.196 108.03C146.314 107.824 139.495 109.399 133.4 112.6C131.855 110.653 129.743 109.234 127.357 108.538C124.971 107.843 122.427 107.906 120.078 108.718C117.729 109.53 115.69 111.052 114.243 113.073C112.796 115.094 112.012 117.514 112 120V176C112 179.183 113.264 182.235 115.515 184.485C117.765 186.736 120.817 188 124 188V188ZM232 44V212C231.974 217.296 229.858 222.368 226.113 226.113C222.368 229.858 217.296 231.974 212 232H44C38.7038 231.974 33.632 229.858 29.8869 226.113C26.1419 222.368 24.0263 217.296 24 212V44C24.0263 38.7038 26.1419 33.632 29.8869 29.8869C33.632 26.1419 38.7038 24.0263 44 24H212C217.296 24.0263 222.368 26.1419 226.113 29.8869C229.858 33.632 231.974 38.7038 232 44V44ZM208 48H48V208H208V48ZM84 96C87.1645 96 90.2579 95.0616 92.8891 93.3035C95.5203 91.5454 97.5711 89.0466 98.7821 86.1229C99.9931 83.1993 100.31 79.9823 99.6926 76.8786C99.0752 73.7749 97.5513 70.9239 95.3137 68.6863C93.0761 66.4487 90.2251 64.9248 87.1214 64.3074C84.0177 63.6901 80.8007 64.0069 77.8771 65.2179C74.9534 66.4289 72.4546 68.4797 70.6965 71.1109C68.9384 73.7421 68 76.8355 68 80C68 84.2435 69.6857 88.3131 72.6863 91.3137C75.6869 94.3143 79.7565 96 84 96Z" fill="#F4EFE3"/>
</svg>
